<?xml version="1.0" encoding="UTF-8" standalone="no"?>
<!-- Generator: Adobe Illustrator 26.4.1, SVG Export Plug-In . SVG Version: 6.00 Build 0)  -->

<svg
   version="1.1"
   id="Layer_1"
   x="0px"
   y="0px"
   viewBox="0 0 96.005386 26.6"
   xml:space="preserve"
   sodipodi:docname="Amica_Mutual_Insurance_Logo.svg"
   width="96.005386"
   height="26.6"
   inkscape:version="1.2.1 (9c6d41e410, 2022-07-14)"
   xmlns:inkscape="http://www.inkscape.org/namespaces/inkscape"
   xmlns:sodipodi="http://sodipodi.sourceforge.net/DTD/sodipodi-0.dtd"
   xmlns="http://www.w3.org/2000/svg"
   xmlns:svg="http://www.w3.org/2000/svg"><defs
   id="defs39" /><sodipodi:namedview
   id="namedview37"
   pagecolor="#505050"
   bordercolor="#eeeeee"
   borderopacity="1"
   inkscape:showpageshadow="0"
   inkscape:pageopacity="0"
   inkscape:pagecheckerboard="0"
   inkscape:deskcolor="#505050"
   showgrid="false"
   inkscape:zoom="10.373737"
   inkscape:cx="48.680623"
   inkscape:cy="13.543817"
   inkscape:window-width="1450"
   inkscape:window-height="1243"
   inkscape:window-x="7765"
   inkscape:window-y="380"
   inkscape:window-maximized="0"
   inkscape:current-layer="Layer_1" />
<style
   type="text/css"
   id="style28">
	.st0{fill:#00A88F;}
</style>
<g
   id="g34"
   transform="translate(-2.3,-36.1)">
	<path
   class="st0"
   d="m 60.8,44.1 c 1.6,0 2.9,-1.2 2.9,-2.9 0,-1.6 -1.3,-2.8 -2.9,-2.8 -1.6,0 -2.8,1.3 -2.8,2.9 0,1.6 1.2,2.8 2.8,2.8 z"
   id="path30" />
	<path
   class="st0"
   d="m 98.3,59.5 c -0.3,0.2 -0.6,0.3 -1,0.3 -1.1,0 -1.4,-1.1 -1.4,-2.3 V 46 c -0.7,0.4 -1.5,0.7 -2.2,1 -1.2,-0.8 -2.9,-1.1 -4.2,-1.1 -4.5,0 -8.6,3.1 -8.6,8.6 0,0.4 0,0.8 0,1.1 -1,2.6 -2.8,4 -5,4 -3.2,0 -5.2,-2.6 -5.1,-6.8 0,-3.2 1.5,-5.6 3.2,-5.6 0.8,0 1.4,0.6 1.4,1.7 0,1.1 -0.4,2.1 -1.1,2.7 0.5,0.9 1.6,1.5 2.7,1.5 1.5,0 2.6,-1.1 2.6,-2.8 0,-2.7 -2.2,-4.5 -5.6,-4.5 -4.8,0 -8,3.4 -8,8.5 0,0.8 0.1,1.6 0.3,2.4 -0.7,1.7 -1.7,2.9 -2.6,2.9 -0.7,0 -1,-0.5 -1,-1.9 V 45.8 c -1.6,0.9 -3.2,1.5 -4.6,1.9 v 8.6 c -0.7,2 -1.7,3.3 -2.7,3.3 -0.7,0 -1,-0.5 -1,-1.9 v -6.9 c 0,-3.6 -1.5,-5 -3.8,-5 -2.7,0 -4.6,2.3 -5.5,4.8 -0.1,-3.4 -1.6,-4.8 -3.8,-4.8 -2.7,0 -4.7,2.4 -5.5,4.9 v -3.3 -0.1 -1.5 c -2.5,1.3 -5.4,2.4 -8.6,3.1 V 36.1 c -7.8,0.7 -11.4,4.2 -13.3,12.5 -0.1,0.4 -0.2,0.8 -0.3,1.2 -7.3,0.7 -11.3,4.5 -11.3,8.6 0,2.7 2,4.3 4.7,4.3 4.3,0 6.8,-3.6 8.6,-11.4 L 22.3,51 v 11 h 4.9 V 50.5 c 1.5,-0.3 2.8,-0.6 4,-1 v 12.6 h 4.6 v -6.3 c 0,-4.2 2.2,-6.5 3.5,-6.5 1,0 1.3,1 1.3,3.3 v 9.5 h 4.6 v -6.3 c 0,-4.1 2,-6.5 3.3,-6.5 0.9,0 1.4,1 1.4,3.3 v 6.3 c 0,2.4 1.1,3.6 3.2,3.6 2.2,0 3.8,-1.3 5,-3.4 0.1,2.3 1.3,3.4 3.4,3.4 2.5,0 4.3,-1.6 5.4,-4.1 1.2,2.3 3.6,4.1 7.2,4.1 3.1,0 5.7,-1.8 7.1,-4.8 1,3.2 3.4,4.8 5.8,4.8 2,0 3.6,-1 4.6,-2.8 0.5,1.7 1.6,2.8 3.4,2.8 2.1,-0.1 3.4,-1.3 3.3,-3 z M 8.1,60 C 7,60 6.2,59.2 6.2,58 6.2,55.1 9.3,52.3 13.5,51.6 12,57 10.2,60 8.1,60 Z m 8.2,-10.2 c 1.6,-7.4 3.9,-9.4 6.4,-10.3 v 10 z m 73.1,9.9 c -2.1,0 -3.7,-2.6 -3.7,-6.4 0,-3.7 1.4,-6 3.7,-6 0.7,0 1.6,0.2 2.3,1 V 58 c 0,0 0,0 0,0.1 -0.5,1 -1.3,1.6 -2.3,1.6 z"
   id="path32" />
</g>
</svg>
